<svg aria-hidden="true" style="position:absolute;width:0;height:0;overflow:hidden" xmlns="http://www.w3.org/2000/svg"><defs><symbol id="icon-icon-air-conditioner" viewBox="0 0 32 32"><path stroke-linejoin="round" stroke-linecap="round" stroke-width="2.4" d="M28.571 1.143H3.428a2.287 2.287 0 0 0-2.285 2.285v11.429a2.287 2.287 0 0 0 2.285 2.285h25.143a2.287 2.287 0 0 0 2.286-2.285V3.428a2.283 2.283 0 0 0-2.286-2.285z"/><path stroke-linejoin="round" stroke-linecap="round" stroke-width="2.4" d="M25.143 17.143v-4.571a2.283 2.283 0 0 0-2.286-2.285H9.143a2.287 2.287 0 0 0-2.285 2.285v4.571M5.714 28.572h.229a3.2 3.2 0 0 0 3.2-3.2v-2.514m17.143 5.714h-.229a3.2 3.2 0 0 1-3.2-3.2v-2.514M16 30.857v-8"/></symbol><symbol id="icon-icon-automatic" viewBox="0 0 32 32"><path stroke-linejoin="round" stroke-linecap="round" stroke-width="2.4" d="M22.667 14.667h2a2 2 0 0 0 0-4h-2v6.667m0 5.333V28H24a2.668 2.668 0 0 0 0-5.334h-1.333zM4 6.667a2.668 2.668 0 1 0 5.336 0 2.668 2.668 0 0 0-5.336 0z"/><path stroke-linejoin="round" stroke-linecap="round" stroke-width="2.4" d="M6.667 9.333v4a1.335 1.335 0 0 0 1.334 1.334h4m-.001 0V24a1.33 1.33 0 0 0 1.334 1.333h4M12 14.667h5.333"/></symbol><symbol id="icon-icon-bed" viewBox="0 0 32 32"><path stroke-linejoin="round" stroke-linecap="round" stroke-width="2.24" d="M3 26v-7a4.012 4.012 0 0 1 4-4h18a4.012 4.012 0 0 1 4 4v7m-5-11H6V8.5A2.504 2.504 0 0 1 8.5 6h15A2.504 2.504 0 0 1 26 8.5V15h-2z"/><path stroke-linejoin="round" stroke-linecap="round" stroke-width="2.24" d="M3 26v-.5A1.504 1.504 0 0 1 4.5 24h23a1.504 1.504 0 0 1 1.5 1.5v.5M7 15v-1a2.002 2.002 0 0 1 2-2h5a2.002 2.002 0 0 1 2 2m0 0v1m0-1a2.008 2.008 0 0 1 2-2h5a2.002 2.002 0 0 1 2 2v1"/></symbol><symbol id="icon-icon-button-camper" viewBox="0 0 32 32"><path d="M1.826 6.06h8.686a.276.276 0 0 0 .194-.079l.834-.814c.243-.237.565-.367.908-.367H25.62a1.84 1.84 0 0 1 1.523.795l1.579 2.31c.224.328.244.747.054 1.095s-.56.563-.964.563h-6.789v.669H24.5c.922 0 1.751.534 2.112 1.361l2.036 4.655 1.783.696c.952.372 1.568 1.258 1.568 2.259v4.311c0 .643-.536 1.166-1.195 1.166h-2.075c-.241 1.427-1.515 2.52-3.045 2.52s-2.804-1.092-3.045-2.52H11.297c-.241 1.427-1.515 2.52-3.045 2.52s-2.804-1.092-3.045-2.52H1.062c-.586 0-1.063-.465-1.063-1.037V7.84c0-.982.819-1.781 1.826-1.781zm23.859 20.156c1.146 0 2.078-.909 2.078-2.027s-.932-2.027-2.078-2.027-2.078.909-2.078 2.027.932 2.027 2.078 2.027zm-4.661-2.52h1.615l.014-.073a2.138 2.138 0 0 1 .037-.165l.006-.024a2.12 2.12 0 0 1 .04-.136l.013-.039c.01-.032.021-.063.033-.094l.02-.05a1.377 1.377 0 0 1 .056-.133l.035-.076.027-.053.038-.072a1.353 1.353 0 0 1 .071-.122l.03-.05.046-.07.031-.046c.017-.025.036-.049.054-.074l.028-.039.076-.094.011-.014.092-.104.03-.031.067-.069.039-.037.063-.059.043-.038.063-.054.046-.037.065-.05.048-.035.068-.047.048-.032a1.8 1.8 0 0 1 .073-.046l.048-.029.082-.046.042-.023.118-.059.009-.004c.043-.02.086-.039.13-.057l.043-.017.091-.035.052-.018.084-.028.057-.017.082-.023.06-.015a1.11 1.11 0 0 1 .083-.018l.061-.013.085-.015a2.218 2.218 0 0 1 .15-.02c.019-.002.038-.005.058-.006a1.68 1.68 0 0 1 .1-.007l.049-.003a2.514 2.514 0 0 1 .302 0c.017 0 .033.002.049.003l.1.007.058.006.09.011.061.009a1.159 1.159 0 0 1 .146.028l.083.018.06.015.082.023.057.017.084.028.052.018.091.035.043.017c.044.018.087.037.13.057l.009.004.118.059.042.023.082.046.048.029.073.046.048.032.068.047a1.456 1.456 0 0 1 .113.085l.046.037.063.054.043.038.063.059a1.328 1.328 0 0 1 .106.106l.03.031c.031.034.062.068.092.104l.011.014a3.464 3.464 0 0 1 .158.207l.031.046.046.07.03.05.042.07.029.052.038.072.027.053.035.076.023.052.033.081.02.05.033.094.013.039.04.136.006.024c.01.038.019.076.027.115l.01.05.014.073h2.074a.184.184 0 0 0 .186-.182v-2.062h-.787v-.984h.787v-1.264c0-.596-.366-1.124-.933-1.345l-1.888-.737h-7.146v6.574zm0-7.558h6.48l-1.818-4.158a1.287 1.287 0 0 0-1.185-.763h-3.477v4.921zM8.252 26.216c1.146 0 2.078-.909 2.078-2.027s-.932-2.027-2.078-2.027a1.91 1.91 0 0 0-.107.003c-.955.047-1.742.727-1.929 1.616l-.019.1a1.957 1.957 0 0 0-.024.308c0 1.118.932 2.027 2.078 2.027zm-7.243-5.748h.787v.984h-.787v2.192c0 .029.024.052.054.052h4.144l.014-.072.01-.051a2.031 2.031 0 0 1 .033-.138 2.092 2.092 0 0 1 .054-.176l.032-.093.02-.051.032-.08.024-.054.035-.074.027-.054.038-.072.029-.052c.014-.024.027-.047.042-.07a1.358 1.358 0 0 1 .077-.12.917.917 0 0 1 .031-.046l.053-.073.029-.04a3.305 3.305 0 0 1 .179-.212l.03-.032a2.148 2.148 0 0 1 .17-.163l.044-.038.063-.053.046-.037.065-.05.048-.035.067-.047.049-.033.072-.045.048-.029.081-.046.042-.023a2.121 2.121 0 0 1 .127-.063c.043-.02.086-.039.13-.057l.043-.017.091-.035.053-.018.084-.028.057-.017.082-.023.06-.015a1.11 1.11 0 0 1 .083-.018l.061-.013.085-.015a2.218 2.218 0 0 1 .151-.02c.019-.002.038-.005.058-.006a1.68 1.68 0 0 1 .1-.007l.049-.003a2.514 2.514 0 0 1 .302 0c.017 0 .033.002.049.003l.1.007.058.006.09.011.06.009a1.159 1.159 0 0 1 .146.028l.083.018.06.015.082.023.057.017.084.028a3.247 3.247 0 0 1 .144.053l.043.017c.044.018.087.037.13.057l.01.005.117.058.042.023a3.326 3.326 0 0 1 .129.075l.072.045.049.033.067.047a1.456 1.456 0 0 1 .113.085l.046.037.063.053.044.038.063.059.039.037c.023.022.045.046.067.069l.03.031c.031.034.062.068.092.104l.012.015c.025.031.051.062.075.094l.029.039.054.074.031.046.046.07.031.05.042.07.029.052.038.072.026.053.035.076.023.052.033.081.019.05c.012.031.022.063.033.095l.013.039.04.136.005.022.028.117.009.048.015.074h8.717V9.073c0-.272.226-.492.504-.492h7.293c.012 0 .051 0 .075-.044s.003-.074-.004-.084l-1.578-2.31a.825.825 0 0 0-.684-.357H12.453a.28.28 0 0 0-.195.079l-.834.814a1.29 1.29 0 0 1-.908.367H1.83a.808.808 0 0 0-.817.797V20.47z"/><path d="M14.081 9.838h3.191c.644 0 1.169.511 1.169 1.14V21.51a.498.498 0 0 1-.504.492h-4.52a.498.498 0 0 1-.504-.492V10.978c0-.629.524-1.14 1.169-1.14zm-.16 11.181h3.511v-5.787h-3.511v5.787zm0-6.771h3.511v-3.269a.158.158 0 0 0-.16-.156h-3.191c-.088 0-.16.07-.16.156v3.269z"/></symbol><symbol id="icon-icon-button-window" viewBox="0 0 32 32"><path d="M1.826 6.06h8.686a.276.276 0 0 0 .194-.079l.834-.814c.243-.237.565-.367.908-.367H25.62a1.84 1.84 0 0 1 1.523.795l1.579 2.31c.224.328.244.747.054 1.095s-.56.563-.964.563h-6.789v.669H24.5c.922 0 1.751.534 2.112 1.361l2.036 4.655 1.783.696c.952.372 1.568 1.258 1.568 2.259v4.311c0 .643-.536 1.166-1.195 1.166h-2.075c-.241 1.427-1.515 2.52-3.045 2.52s-2.804-1.092-3.045-2.52H11.297c-.241 1.427-1.515 2.52-3.045 2.52s-2.804-1.092-3.045-2.52H1.062c-.586 0-1.063-.465-1.063-1.037V7.84c0-.982.819-1.781 1.826-1.781zm23.859 20.156c1.146 0 2.078-.909 2.078-2.027s-.932-2.027-2.078-2.027-2.078.909-2.078 2.027.932 2.027 2.078 2.027zm-4.661-2.52h1.615l.014-.073a2.138 2.138 0 0 1 .037-.165l.006-.024a2.12 2.12 0 0 1 .04-.136l.013-.039c.01-.032.021-.063.033-.094l.02-.05a1.377 1.377 0 0 1 .056-.133l.035-.076.027-.053.038-.072a1.353 1.353 0 0 1 .071-.122l.03-.05.046-.07.031-.046c.017-.025.036-.049.054-.074l.028-.039.076-.094.011-.014.092-.104.03-.031.067-.069.039-.037.063-.059.043-.038.063-.054.046-.037.065-.05.048-.035.068-.047.048-.032a1.8 1.8 0 0 1 .073-.046l.048-.029.082-.046.042-.023.118-.059.009-.004c.043-.02.086-.039.13-.057l.043-.017.091-.035.052-.018.084-.028.057-.017.082-.023.06-.015a1.11 1.11 0 0 1 .083-.018l.061-.013.085-.015a2.218 2.218 0 0 1 .15-.02c.019-.002.038-.005.058-.006a1.68 1.68 0 0 1 .1-.007l.049-.003a2.514 2.514 0 0 1 .302 0c.017 0 .033.002.049.003l.1.007.058.006.09.011.061.009a1.159 1.159 0 0 1 .146.028l.083.018.06.015.082.023.057.017.084.028.052.018.091.035.043.017c.044.018.087.037.13.057l.009.004.118.059.042.023.082.046.048.029.073.046.048.032.068.047a1.456 1.456 0 0 1 .113.085l.046.037.063.054.043.038.063.059a1.328 1.328 0 0 1 .106.106l.03.031c.031.034.062.068.092.104l.011.014a3.464 3.464 0 0 1 .158.207l.031.046.046.07.03.05.042.07.029.052.038.072.027.053.035.076.023.052.033.081.02.05.033.094.013.039.04.136.006.024c.01.038.019.076.027.115l.01.05.014.073h2.074a.184.184 0 0 0 .186-.182v-2.062h-.787v-.984h.787v-1.264c0-.596-.366-1.124-.933-1.345l-1.888-.737h-7.146v6.574zm0-7.558h6.48l-1.818-4.158a1.287 1.287 0 0 0-1.185-.763h-3.477v4.921zM8.252 26.216c1.146 0 2.078-.909 2.078-2.027s-.932-2.027-2.078-2.027a1.91 1.91 0 0 0-.107.003c-.955.047-1.742.727-1.929 1.616l-.019.1a1.957 1.957 0 0 0-.024.308c0 1.118.932 2.027 2.078 2.027zm-7.243-5.748h.787v.984h-.787v2.192c0 .029.024.052.054.052h4.144l.014-.072.01-.051a2.031 2.031 0 0 1 .033-.138 2.092 2.092 0 0 1 .054-.176l.032-.093.02-.051.032-.08.024-.054.035-.074.027-.054.038-.072.029-.052c.014-.024.027-.047.042-.07a1.358 1.358 0 0 1 .077-.12.917.917 0 0 1 .031-.046l.053-.073.029-.04a3.305 3.305 0 0 1 .179-.212l.03-.032a2.148 2.148 0 0 1 .17-.163l.044-.038.063-.053.046-.037.065-.05.048-.035.067-.047.049-.033.072-.045.048-.029.081-.046.042-.023a2.121 2.121 0 0 1 .127-.063c.043-.02.086-.039.13-.057l.043-.017.091-.035.053-.018.084-.028.057-.017.082-.023.06-.015a1.11 1.11 0 0 1 .083-.018l.061-.013.085-.015a2.218 2.218 0 0 1 .151-.02c.019-.002.038-.005.058-.006a1.68 1.68 0 0 1 .1-.007l.049-.003a2.514 2.514 0 0 1 .302 0c.017 0 .033.002.049.003l.1.007.058.006.09.011.06.009a1.159 1.159 0 0 1 .146.028l.083.018.06.015.082.023.057.017.084.028a3.247 3.247 0 0 1 .144.053l.043.017c.044.018.087.037.13.057l.01.005.117.058.042.023a3.326 3.326 0 0 1 .129.075l.072.045.049.033.067.047a1.456 1.456 0 0 1 .113.085l.046.037.063.053.044.038.063.059.039.037c.023.022.045.046.067.069l.03.031c.031.034.062.068.092.104l.012.015c.025.031.051.062.075.094l.029.039.054.074.031.046.046.07.031.05.042.07.029.052.038.072.026.053.035.076.023.052.033.081.019.05c.012.031.022.063.033.095l.013.039.04.136.005.022.028.117.009.048.015.074h8.717V9.073c0-.272.226-.492.504-.492h7.293c.012 0 .051 0 .075-.044s.003-.074-.004-.084l-1.578-2.31a.825.825 0 0 0-.684-.357H12.453a.28.28 0 0 0-.195.079l-.834.814a1.29 1.29 0 0 1-.908.367H1.83a.808.808 0 0 0-.817.797V20.47z"/><path d="M3.875 9.838h6.17c.713 0 1.293.566 1.293 1.262v2.87c0 .696-.58 1.262-1.293 1.262h-6.17c-.713 0-1.293-.566-1.293-1.262V11.1c0-.696.581-1.262 1.294-1.262zm-.284 4.132c0 .153.127.278.284.278h6.17a.28.28 0 0 0 .284-.278V11.1a.282.282 0 0 0-.284-.278h-6.17a.28.28 0 0 0-.284.278v2.87z"/></symbol><symbol id="icon-icon-calendar" viewBox="0 0 32 32"><path stroke-linejoin="round" stroke-linecap="round" stroke-width="2.4" d="M25.333 5.333H6.666A2.667 2.667 0 0 0 3.999 8v18.667a2.667 2.667 0 0 0 2.667 2.667h18.667A2.667 2.667 0 0 0 28 26.667V8a2.667 2.667 0 0 0-2.667-2.667zM21.333 2.667V8M10.667 2.667V8M4 13.333h24"/></symbol><symbol id="icon-icon-camper" viewBox="0 0 32 32"><path d="M1.826 6.06h8.686a.276.276 0 0 0 .194-.079l.834-.814c.243-.237.565-.367.908-.367H25.62a1.84 1.84 0 0 1 1.523.795l1.579 2.31c.224.328.244.747.054 1.095s-.56.563-.964.563h-6.789v.669H24.5c.922 0 1.751.534 2.112 1.361l2.036 4.655 1.783.696c.952.372 1.568 1.258 1.568 2.259v4.311c0 .643-.536 1.166-1.195 1.166h-2.075c-.241 1.427-1.515 2.52-3.045 2.52s-2.804-1.092-3.045-2.52H11.297c-.241 1.427-1.515 2.52-3.045 2.52s-2.804-1.092-3.045-2.52H1.062c-.586 0-1.063-.465-1.063-1.037V7.84c0-.982.819-1.781 1.826-1.781zm23.859 20.156c1.146 0 2.078-.909 2.078-2.027s-.932-2.027-2.078-2.027-2.078.909-2.078 2.027.932 2.027 2.078 2.027zm-4.661-2.52h1.615l.014-.073a2.138 2.138 0 0 1 .037-.165l.006-.024a2.12 2.12 0 0 1 .04-.136l.013-.039c.01-.032.021-.063.033-.094l.02-.05a1.377 1.377 0 0 1 .056-.133l.035-.076.027-.053.038-.072a1.353 1.353 0 0 1 .071-.122l.03-.05.046-.07.031-.046c.017-.025.036-.049.054-.074l.028-.039.076-.094.011-.014.092-.104.03-.031.067-.069.039-.037.063-.059.043-.038.063-.054.046-.037.065-.05.048-.035.068-.047.048-.032a1.8 1.8 0 0 1 .073-.046l.048-.029.082-.046.042-.023.118-.059.009-.004c.043-.02.086-.039.13-.057l.043-.017.091-.035.052-.018.084-.028.057-.017.082-.023.06-.015a1.11 1.11 0 0 1 .083-.018l.061-.013.085-.015a2.218 2.218 0 0 1 .15-.02c.019-.002.038-.005.058-.006a1.68 1.68 0 0 1 .1-.007l.049-.003a2.514 2.514 0 0 1 .302 0c.017 0 .033.002.049.003l.1.007.058.006.09.011.061.009a1.159 1.159 0 0 1 .146.028l.083.018.06.015.082.023.057.017.084.028.052.018.091.035.043.017c.044.018.087.037.13.057l.009.004.118.059.042.023.082.046.048.029.073.046.048.032.068.047a1.456 1.456 0 0 1 .113.085l.046.037.063.054.043.038.063.059a1.328 1.328 0 0 1 .106.106l.03.031c.031.034.062.068.092.104l.011.014a3.464 3.464 0 0 1 .158.207l.031.046.046.07.03.05.042.07.029.052.038.072.027.053.035.076.023.052.033.081.02.05.033.094.013.039.04.136.006.024c.01.038.019.076.027.115l.01.05.014.073h2.074a.184.184 0 0 0 .186-.182v-2.062h-.787v-.984h.787v-1.264c0-.596-.366-1.124-.933-1.345l-1.888-.737h-7.146v6.574zm0-7.558h6.48l-1.818-4.158a1.287 1.287 0 0 0-1.185-.763h-3.477v4.921zM8.252 26.216c1.146 0 2.078-.909 2.078-2.027s-.932-2.027-2.078-2.027a1.91 1.91 0 0 0-.107.003c-.955.047-1.742.727-1.929 1.616l-.019.1a1.957 1.957 0 0 0-.024.308c0 1.118.932 2.027 2.078 2.027zm-7.243-5.748h.787v.984h-.787v2.192c0 .029.024.052.054.052h4.144l.014-.072.01-.051a2.031 2.031 0 0 1 .033-.138 2.092 2.092 0 0 1 .054-.176l.032-.093.02-.051.032-.08.024-.054.035-.074.027-.054.038-.072.029-.052c.014-.024.027-.047.042-.07a1.358 1.358 0 0 1 .077-.12.917.917 0 0 1 .031-.046l.053-.073.029-.04a3.305 3.305 0 0 1 .179-.212l.03-.032a2.148 2.148 0 0 1 .17-.163l.044-.038.063-.053.046-.037.065-.05.048-.035.067-.047.049-.033.072-.045.048-.029.081-.046.042-.023a2.121 2.121 0 0 1 .127-.063c.043-.02.086-.039.13-.057l.043-.017.091-.035.053-.018.084-.028.057-.017.082-.023.06-.015a1.11 1.11 0 0 1 .083-.018l.061-.013.085-.015a2.218 2.218 0 0 1 .151-.02c.019-.002.038-.005.058-.006a1.68 1.68 0 0 1 .1-.007l.049-.003a2.514 2.514 0 0 1 .302 0c.017 0 .033.002.049.003l.1.007.058.006.09.011.06.009a1.159 1.159 0 0 1 .146.028l.083.018.06.015.082.023.057.017.084.028a3.247 3.247 0 0 1 .144.053l.043.017c.044.018.087.037.13.057l.01.005.117.058.042.023a3.326 3.326 0 0 1 .129.075l.072.045.049.033.067.047a1.456 1.456 0 0 1 .113.085l.046.037.063.053.044.038.063.059.039.037c.023.022.045.046.067.069l.03.031c.031.034.062.068.092.104l.012.015c.025.031.051.062.075.094l.029.039.054.074.031.046.046.07.031.05.042.07.029.052.038.072.026.053.035.076.023.052.033.081.019.05c.012.031.022.063.033.095l.013.039.04.136.005.022.028.117.009.048.015.074h8.717V9.073c0-.272.226-.492.504-.492h7.293c.012 0 .051 0 .075-.044s.003-.074-.004-.084l-1.578-2.31a.825.825 0 0 0-.684-.357H12.453a.28.28 0 0 0-.195.079l-.834.814a1.29 1.29 0 0 1-.908.367H1.83a.808.808 0 0 0-.817.797V20.47z"/><path d="M14.081 9.838h3.191c.644 0 1.169.511 1.169 1.14V21.51a.498.498 0 0 1-.504.492h-4.52a.498.498 0 0 1-.504-.492V10.978c0-.629.524-1.14 1.169-1.14zm-.16 11.181h3.511v-5.787h-3.511v5.787zm0-6.771h3.511v-3.269a.158.158 0 0 0-.16-.156h-3.191c-.088 0-.16.07-.16.156v3.269zM3.875 9.838h6.17c.713 0 1.293.566 1.293 1.262v2.87c0 .696-.58 1.262-1.293 1.262h-6.17c-.713 0-1.293-.566-1.293-1.262V11.1c0-.696.581-1.262 1.294-1.262zM3.59 13.97c0 .153.127.278.284.278h6.17a.28.28 0 0 0 .284-.278V11.1a.282.282 0 0 0-.284-.278h-6.17a.28.28 0 0 0-.284.278v2.87z"/></symbol><symbol id="icon-icon-cd" viewBox="0 0 32 32"><path stroke-width="2.4" d="M16 28c6.627 0 12-5.373 12-12S22.627 4 16 4 4 9.373 4 16s5.373 12 12 12z"/><path stroke-linecap="round" stroke-width="2.4" d="M8.667 16A7.333 7.333 0 0 1 16 8.667"/><path stroke-width="2.4" d="M16 19.333a3.333 3.333 0 1 0 0-6.665 3.333 3.333 0 0 0 0 6.665z"/></symbol><symbol id="icon-icon-diesel" viewBox="0 0 32 32"><path d="M15.504 3.2c-1.501 0-2.956.513-4.117 1.45S9.431 6.891 9.136 8.34l-.116.575a.991.991 0 0 0 .777 1.191c.132.026.267.025.399-.001s.256-.079.366-.155a.992.992 0 0 0 .418-.65l.118-.573c.222-1.075.84-2.03 1.737-2.681s2.006-.951 3.114-.843c1.108.108 2.136.618 2.884 1.43S19.997 8.501 20 9.598c0 1.175-.474 2.302-1.318 3.134s-1.988 1.298-3.182 1.299H1c-.265 0-.52.104-.707.288S0 14.754 0 15.015c0 .261.105.512.293.696s.442.288.707.288h14.5c1.696-.041 3.309-.733 4.494-1.928s1.849-2.799 1.849-4.47-.662-3.275-1.846-4.471a6.55 6.55 0 0 0-4.492-1.931zM27 12.062c-1.326 0-2.598.519-3.536 1.442S22 15.679 22 16.985c0 .261.105.512.293.696a1.011 1.011 0 0 0 1.414 0 .976.976 0 0 0 .293-.696c0-.584.176-1.155.506-1.641s.798-.864 1.346-1.088a3.038 3.038 0 0 1 3.269.64c.42.413.705.939.821 1.512s.056 1.167-.171 1.707-.612 1.001-1.105 1.326a3.029 3.029 0 0 1-1.667.498h-26c-.265 0-.52.104-.707.288s-.293.435-.293.696c0 .261.105.512.293.696s.442.288.707.288h19.5c.663.001 1.298.262 1.766.724s.73 1.089.729 1.742c-.001.653-.266 1.279-.736 1.739s-1.106.719-1.769.717c-.597 0-1.175-.207-1.632-.587s-.762-.905-.862-1.485l-.01-.059a.966.966 0 0 0-.398-.66 1.017 1.017 0 0 0-1.129-.039.991.991 0 0 0-.444.631.976.976 0 0 0-.002.392l.01.059c.178 1.04.724 1.984 1.542 2.664s1.854 1.054 2.924 1.054c1.195 0 2.341-.466 3.186-1.297s1.322-1.958 1.324-3.134c0-.912-.28-1.759-.758-2.462h2.758c1.326 0 2.598-.519 3.536-1.442s1.464-2.175 1.464-3.481-.527-2.558-1.464-3.481a5.041 5.041 0 0 0-3.536-1.442z"/><path d="m15.504 3.2.198-7.998-.1-.002h-.1l.002 8zM9.136 8.34 1.297 6.745l-.003.013L9.136 8.34zm-.116.575 7.78 1.865.034-.141.029-.142-7.842-1.582zm1.96.386L3.144 7.687l-.03.147-.025.148L10.98 9.3zm.118-.573zm8.902.87h8v-.02l-8 .02zm-4.5 4.433v8h.004l-.004-8zM0 15.015zM15.5 16v8h.096l.096-.002L15.499 16zm8.5.985zM0 20.923zm20.5.985.016-8H20.5v8zm-.01 4.923.016-8h-.021l.006 8zm-2.494-2.072-7.888 1.335.002.013.002.013 7.883-1.362zm-.01-.059-7.925 1.091.017.123.021.122 7.888-1.335zm-1.972.323 7.888-1.335-.02-.119-.024-.119-7.844 1.573zm.01.059-7.888 1.335.002.014 7.885-1.349zM20.49 28.8l.004-8h-.005l.001 8zM25 24.369l8 .014v-.014h-8zm-.758-2.461v-8H9.128l8.498 12.498 6.616-4.498zM15.502-4.8a14.555 14.555 0 0 0-9.139 3.224l10.049 12.451a1.44 1.44 0 0 1-.906.325l-.004-16zM6.363-1.576a14.38 14.38 0 0 0-5.066 8.32l15.679 3.19c-.08.392-.29.719-.564.94L6.363-1.577zM1.294 6.758l-.116.575 15.684 3.164.116-.575L1.294 6.758zm-.054.292a8.974 8.974 0 0 0-.115 3.627l15.764-2.74a7.037 7.037 0 0 1-.09 2.843L1.24 7.05zm-.114 3.627a8.97 8.97 0 0 0 1.325 3.366l13.402-8.74c.518.794.872 1.69 1.037 2.634l-15.764 2.74zm1.325 3.366a8.976 8.976 0 0 0 2.518 2.552l8.922-13.282a7.005 7.005 0 0 1 1.962 1.99l-13.402 8.74zm2.518 2.552a9.03 9.03 0 0 0 3.283 1.361l3.091-15.698a6.995 6.995 0 0 1 2.548 1.056L4.969 16.596zm3.282 1.361a9.032 9.032 0 0 0 3.54-.011L8.599 2.267a6.996 6.996 0 0 1 2.743-.009L8.251 17.956zm3.541-.012a9.008 9.008 0 0 0 3.274-1.382L6.058 3.338a6.983 6.983 0 0 1 2.541-1.073l3.192 15.678zm3.274-1.382a8.994 8.994 0 0 0 2.502-2.569L4.109 5.341a7.01 7.01 0 0 1 1.95-2.003l9.008 13.224zm2.502-2.569a8.993 8.993 0 0 0 1.303-3.375L3.09 7.982a7.026 7.026 0 0 1 1.019-2.641l13.459 8.652zm1.248-3.079.118-.573L3.263 7.114l-.118.573 15.671 3.227zm.117-.57a3.577 3.577 0 0 1-1.396 2.175L8.132-.425a12.414 12.414 0 0 0-4.869 7.537l15.67 3.233zm-1.396 2.175a3.452 3.452 0 0 1-2.367.647l1.557-15.924A12.544 12.544 0 0 0 8.133-.425l9.405 12.944zm-2.367.647a3.475 3.475 0 0 1-2.218-1.11L24.715 1.21a12.522 12.522 0 0 0-7.988-3.969L15.17 13.165zm-2.219-1.11A3.61 3.61 0 0 1 12 9.618l16-.04a12.389 12.389 0 0 0-3.286-8.368L12.951 12.056zM12 9.598c0-.986.399-1.907 1.068-2.566l11.228 11.399A12.398 12.398 0 0 0 28 9.598H12zm1.068-2.566a3.465 3.465 0 0 1 2.428-1.002l.007 16a12.535 12.535 0 0 0 8.793-3.6L13.068 7.031zM15.5 6.031H1v16h14.5v-16zm-14.5 0a9.008 9.008 0 0 0-6.32 2.588L5.906 20.02A6.99 6.99 0 0 1 1 22.031v-16zm-6.32 2.588A8.979 8.979 0 0 0-8 15.016H8a7.021 7.021 0 0 1-2.094 5.004L-5.32 8.619zM-8 15.015c0 2.423.979 4.722 2.68 6.397L5.906 10.011A7.023 7.023 0 0 1 8 15.015H-8zm2.68 6.397A9.008 9.008 0 0 0 1 24V8a6.99 6.99 0 0 1 4.906 2.011L-5.32 21.412zM1 24h14.5V8H1v16zm14.693-.002a14.545 14.545 0 0 0 9.982-4.294L14.312 8.44a1.45 1.45 0 0 1 .995-.437l.386 15.995zm9.982-4.294a14.35 14.35 0 0 0 4.168-10.1l-16-.005c0-.456.183-.87.47-1.16l11.363 11.264zm4.168-10.1A14.353 14.353 0 0 0 25.682-.498L14.312 10.76a1.65 1.65 0 0 1-.469-1.16l16 .005zM25.681-.498a14.552 14.552 0 0 0-9.98-4.3l-.396 15.995a1.452 1.452 0 0 1-.995-.438L25.68-.499zM27 4.062a13.04 13.04 0 0 0-9.148 3.741l11.226 11.401a2.96 2.96 0 0 1-2.077.858v-16zm-9.148 3.741A12.888 12.888 0 0 0 14 16.985h16c0 .856-.347 1.652-.923 2.219L17.851 7.803zM14 16.985c0 2.423.979 4.722 2.68 6.397l11.226-11.401A7.023 7.023 0 0 1 30 16.985H14zm2.68 6.396A9.008 9.008 0 0 0 23 25.969v-16a6.99 6.99 0 0 1 4.906 2.011L16.68 23.381zM23 25.969a9.008 9.008 0 0 0 6.32-2.588L18.094 11.98A6.99 6.99 0 0 1 23 9.969v16zm6.32-2.588A8.979 8.979 0 0 0 32 16.984H16c0-1.901.768-3.699 2.094-5.004L29.32 23.381zM32 16.985a5.08 5.08 0 0 1-.875 2.851l-13.239-8.985A10.924 10.924 0 0 0 16 16.984h16zm-.875 2.851a5.006 5.006 0 0 1-2.252 1.827L22.831 6.848a10.986 10.986 0 0 0-4.945 4.003l13.239 8.985zm-2.252 1.827a4.96 4.96 0 0 1-2.825.275l3.075-15.702a11.049 11.049 0 0 0-6.292.611l6.042 14.815zm-2.825.275a4.984 4.984 0 0 1-2.539-1.342L34.735 9.195a11.023 11.023 0 0 0-5.611-2.959l-3.075 15.702zm-2.54-1.342a5.063 5.063 0 0 1-1.408-2.604l15.683-3.168a10.937 10.937 0 0 0-3.05-5.629L23.507 20.596zm-1.407-2.604a5.082 5.082 0 0 1 .297-2.98l14.748 6.204a10.917 10.917 0 0 0 .638-6.393l-15.683 3.168zm.297-2.979a5.042 5.042 0 0 1 1.872-2.256l8.794 13.367a10.963 10.963 0 0 0 4.082-4.907l-14.748-6.204zm1.872-2.256a4.965 4.965 0 0 1 2.73-.819v16c2.148 0 4.258-.627 6.064-1.814L24.27 12.757zm2.73-.819H1v16h26v-16zm-26 0a9.008 9.008 0 0 0-6.32 2.588L5.906 25.927A6.99 6.99 0 0 1 1 27.938v-16zm-6.32 2.588A8.979 8.979 0 0 0-8 20.923H8a7.021 7.021 0 0 1-2.094 5.004L-5.32 14.526zM-8 20.923c0 2.423.979 4.722 2.68 6.397L5.906 15.919A7.023 7.023 0 0 1 8 20.923H-8zm2.68 6.397A9.008 9.008 0 0 0 1 29.908v-16a6.99 6.99 0 0 1 4.906 2.011L-5.32 27.32zM1 29.908h19.5v-16H1v16zm19.484 0a5.479 5.479 0 0 1-3.842-1.586L27.89 16.943a10.52 10.52 0 0 0-7.375-3.035l-.031 16zm-3.842-1.587a5.557 5.557 0 0 1-1.647-3.964l16 .032a10.446 10.446 0 0 0-3.104-7.448L16.643 28.32zm-1.647-3.963a5.555 5.555 0 0 1 1.663-3.956l11.203 11.423a10.442 10.442 0 0 0 3.134-7.435l-16-.032zm1.663-3.956a5.478 5.478 0 0 1 3.848-1.571l-.032 16a10.52 10.52 0 0 0 7.386-3.006L16.657 20.402zm3.826-1.571a5.447 5.447 0 0 1 3.485 1.259L13.746 32.398a10.554 10.554 0 0 0 6.749 2.433l-.011-16zm3.486 1.259a5.518 5.518 0 0 1 1.909 3.307l-15.766 2.724a10.474 10.474 0 0 0 3.634 6.277L23.97 20.09zm1.914 3.334-.01-.059-15.776 2.67.01.059 15.776-2.67zm.027.185a8.983 8.983 0 0 0-1.201-3.404l-13.709 8.25a7.025 7.025 0 0 1-.94-2.665l15.851-2.181zm-1.201-3.404a8.998 8.998 0 0 0-2.419-2.638l-9.404 12.945a7.002 7.002 0 0 1-1.886-2.057l13.709-8.25zm-2.419-2.637a9.026 9.026 0 0 0-3.224-1.479l-3.678 15.572a7 7 0 0 1-2.503-1.148l9.404-12.945zm-3.224-1.479a9.02 9.02 0 0 0-3.529-.123l2.586 15.79a6.974 6.974 0 0 1-2.734-.095l3.678-15.572zm-3.529-.123a9.017 9.017 0 0 0-3.315 1.248l8.473 13.572a7.006 7.006 0 0 1-2.572.969l-2.586-15.79zm-3.315 1.248a9.008 9.008 0 0 0-2.595 2.456l13.089 9.202a7.017 7.017 0 0 1-2.021 1.914l-8.473-13.572zm-2.595 2.457a8.962 8.962 0 0 0-1.439 3.306l15.654 3.31a7.032 7.032 0 0 1-1.126 2.586L9.628 19.671zm-1.439 3.305a8.97 8.97 0 0 0-.019 3.62l15.688-3.146a7.023 7.023 0 0 1-.015 2.837l-15.654-3.31zm-.063 3.382.01.059 15.776-2.67-.01-.059-15.776 2.67zm.013.073a12.446 12.446 0 0 0 4.309 7.464l10.237-12.297a3.555 3.555 0 0 1 1.225 2.135L8.139 26.431zm4.308 7.464a12.566 12.566 0 0 0 8.044 2.905l-.003-16a3.43 3.43 0 0 1 2.196.798L12.447 33.895zm8.04 2.905a12.545 12.545 0 0 0 8.796-3.59L18.07 21.796a3.46 3.46 0 0 1 2.424-.997l-.007 16zm8.796-3.59A12.402 12.402 0 0 0 33 24.383l-16-.029a3.593 3.593 0 0 1 1.07-2.558L29.283 33.21zM33 24.369c0-2.576-.797-4.981-2.142-6.96l-13.231 8.996a3.642 3.642 0 0 1-.626-2.037h16zm-8.758 5.539H27v-16h-2.758v16zm2.758 0a13.04 13.04 0 0 0 9.148-3.741L24.922 14.766a2.96 2.96 0 0 1 2.077-.858v16zm9.148-3.742A12.888 12.888 0 0 0 40 16.984H24c0-.856.347-1.652.923-2.219l11.226 11.401zM40 16.985c0-3.468-1.4-6.768-3.852-9.182L24.922 19.204a3.115 3.115 0 0 1-.923-2.219h16zm-3.852-9.182A13.036 13.036 0 0 0 27 4.062v16a2.96 2.96 0 0 1-2.077-.858L36.149 7.803z"/></symbol><symbol id="icon-icon-favorite" viewBox="0 0 32 32"><path stroke-linejoin="round" stroke-linecap="round" stroke-width="3.067" d="M27.787 6.147a7.326 7.326 0 0 0-10.373 0L16.001 7.56l-1.413-1.413a7.333 7.333 0 0 0-10.374 0 7.333 7.333 0 0 0 0 10.374l11.787 11.787 11.787-11.787a7.345 7.345 0 0 0 2.15-5.187 7.33 7.33 0 0 0-2.15-5.187z"/></symbol><symbol id="icon-icon-freezer" viewBox="0 0 32 32"><path stroke-linejoin="round" stroke-linecap="round" stroke-width="2.08" d="M23.4 3H8.607a2 2 0 0 0-2 2v20.387a2 2 0 0 0 2 2H23.4a2 2 0 0 0 2-2V5a2 2 0 0 0-2-2z"/><path stroke-linejoin="round" stroke-linecap="round" stroke-width="2.08" d="M6.607 13.127h18.787m-15.081-2.56v-4.04m0 12.913V15.4M8.427 27.387v.7a.911.911 0 0 0 .907.913h1.647a.911.911 0 0 0 .914-.914v-.7m8.205.001v.7a.913.913 0 0 0 .914.914h1.653a.913.913 0 0 0 .914-.914v-.7"/></symbol><symbol id="icon-icon-gas" viewBox="0 0 32 32"><path d="M25.072 13.991c-.368-.453-.816-.846-1.232-1.239-1.072-.907-2.288-1.556-3.311-2.508-2.384-2.206-2.912-5.848-1.392-8.644-1.52.348-2.848 1.133-3.983 1.995-4.143 3.143-5.775 8.689-3.823 13.449.064.151.128.302.128.499 0 .332-.24.635-.56.756-.368.151-.752.06-1.056-.181a.901.901 0 0 1-.224-.257c-1.808-2.161-2.096-5.259-.88-7.737-2.672 2.055-4.127 5.531-3.919 8.81.096.756.192 1.511.464 2.267.224.907.656 1.813 1.136 2.614 1.728 2.614 4.719 4.488 7.935 4.866 3.423.408 7.087-.181 9.71-2.418 2.927-2.508 3.951-6.528 2.448-9.974l-.208-.393c-.336-.695-1.232-1.904-1.232-1.904zm-5.055 9.521c-.448.363-1.184.756-1.76.907-1.792.604-3.583-.242-4.639-1.239 1.904-.423 3.039-1.753 3.375-3.098.272-1.209-.24-2.206-.448-3.37-.192-1.118-.16-2.07.272-3.113.304.574.624 1.148 1.008 1.602 1.232 1.511 3.167 2.176 3.583 4.231.064.212.096.423.096.65.048 1.239-.528 2.599-1.488 3.43z"/></symbol><symbol id="icon-icon-kitchen" viewBox="0 0 32 32"><path stroke-linejoin="round" stroke-linecap="round" stroke-width="2.4" d="M25.333 20V4c-6.421 6.125-6.697 11.092-6.667 16h6.667zm0 0v8H24v-4M10.667 5.333V28m-4-22.667v4a4.003 4.003 0 0 0 4 4 4.003 4.003 0 0 0 4-4v-4"/></symbol><symbol id="icon-icon-microwave" viewBox="0 0 32 32"><path stroke-linejoin="round" stroke-linecap="round" stroke-width="2.24" d="M29.714 5.714H2.285a1.14 1.14 0 0 0-1.143 1.143v18.286a1.14 1.14 0 0 0 1.143 1.143h27.429a1.14 1.14 0 0 0 1.143-1.143V6.857a1.14 1.14 0 0 0-1.143-1.143z"/><path stroke-linejoin="round" stroke-linecap="round" stroke-width="2.24" d="M25.143 11.428h1.143M25.143 16h1.143m-6.858-5.714H6.857a1.14 1.14 0 0 0-1.143 1.143v9.143a1.14 1.14 0 0 0 1.143 1.143h12.571a1.14 1.14 0 0 0 1.143-1.143v-9.143a1.14 1.14 0 0 0-1.143-1.143z"/></symbol><symbol id="icon-icon-park-hand-painted-plate" viewBox="0 0 32 32"><path stroke-width="2.4" d="M12 6.667h16a1.335 1.335 0 0 1 1.334 1.334v17.333A1.335 1.335 0 0 1 28 26.668H12m0-20.001H4a1.33 1.33 0 0 0-1.333 1.334v17.333A1.333 1.333 0 0 0 4 26.668h8m0-20.001v20"/><path stroke-linejoin="round" stroke-linecap="round" stroke-width="2.4" d="M7.333 11.333V14m17.334-3.333-8 11.333"/><path d="M8.667 18A1.333 1.333 0 1 0 6 18a1.333 1.333 0 0 0 2.667 0zM8.667 22A1.333 1.333 0 1 0 6 22a1.333 1.333 0 0 0 2.667 0z"/></symbol><symbol id="icon-icon-petrol" viewBox="0 0 32 32"><path d="m26.36 9.64.013-.013-4.96-4.96L20 6.08l2.813 2.813a3.324 3.324 0 0 0-1.17 5.464 3.333 3.333 0 0 0 2.357.976c.48 0 .92-.107 1.333-.28v9.613a1.335 1.335 0 0 1-2.277.943 1.335 1.335 0 0 1-.391-.943v-6a2.668 2.668 0 0 0-2.667-2.667h-1.333V6.666a2.668 2.668 0 0 0-2.667-2.667h-8a2.668 2.668 0 0 0-2.667 2.667v21.333h13.333v-10h2v6.667a3.333 3.333 0 1 0 6.667-.001V11.998c0-.92-.373-1.76-.973-2.36zM16 18v7.333H8V16h8v2zm0-4.667H8V6.666h8v6.667zm8 0a1.333 1.333 0 1 1-.002-2.665A1.333 1.333 0 0 1 24 13.333z"/></symbol><symbol id="icon-icon-radio" viewBox="0 0 32 32"><path stroke-width="2.08" d="M2.667 18.667c0-5.028 0-7.543 1.563-9.104C5.791 8 8.306 8 13.334 8h5.333c5.028 0 7.543 0 9.104 1.563 1.563 1.561 1.563 4.076 1.563 9.104s0 7.543-1.563 9.104c-1.561 1.563-4.076 1.563-9.104 1.563h-5.333c-5.028 0-7.543 0-9.104-1.563-1.563-1.561-1.563-4.076-1.563-9.104z"/><path stroke-width="2.08" d="M6.667 14.667A2.668 2.668 0 0 1 9.334 12h13.333a2.668 2.668 0 0 1 0 5.334H9.334a2.668 2.668 0 0 1-2.667-2.667zm5.333 8a2 2 0 1 1-4.001-.001 2 2 0 0 1 4.001.001z"/><path stroke-linecap="round" stroke-width="2.08" d="M20 15.333v2m-2.667 5.334H24M8.667 8 20 2.667"/></symbol><symbol id="icon-icon-route" viewBox="0 0 32 32"><path d="M6.667 4a2.667 2.667 0 1 0 0 5.334 2.667 2.667 0 0 0 0-5.334zM1.333 6.667a5.333 5.333 0 1 1 10.666 0 5.333 5.333 0 0 1-10.666 0zM25.333 22.667a2.667 2.667 0 1 0 0 5.334 2.667 2.667 0 0 0 0-5.334zM20 25.333a5.333 5.333 0 1 1 10.667 0 5.333 5.333 0 0 1-10.667 0z"/><path d="M13.333 6.667c0-.736.597-1.333 1.333-1.333h8.4c4.13 0 5.62 5.404 1.987 7.429L9.58 21.567a1.295 1.295 0 0 0 .686 2.434h7.067a1.333 1.333 0 0 1 0 2.666h-7.067c-4.13 0-5.619-5.404-1.987-7.429l15.473-8.804A1.295 1.295 0 0 0 23.066 8h-8.4a1.333 1.333 0 0 1-1.333-1.333z"/></symbol><symbol id="icon-icon-shower" viewBox="0 0 32 32"><path stroke-linejoin="round" stroke-linecap="round" stroke-width="2" d="m5.333 5.333 3.333 3.333M18 8.667a6.6 6.6 0 0 0-9.334 9.334M20 6.667 6.667 20m12 2.667v.013m-5.334-1.347v.013m4-4.013v.013m4-4.013v.013m-6.666 13.321v.013m8-8.013v.013m4-4.013v.013"/></symbol><symbol id="icon-icon-toilet" viewBox="0 0 32 32"><path d="M24 4c1.939 0 3.269 1.647 4.04 3.313.761 1.653 1.224 3.811 1.287 6.145l.007.541v12.667a1.343 1.343 0 0 1-.409.962 1.352 1.352 0 0 1-.978.371l-.165-.019-3.781-.629-3.781.629a1.33 1.33 0 0 1-.483-.008l-.157-.041-3.579-1.193-3.579 1.193a1.327 1.327 0 0 1-1.135-.138 1.323 1.323 0 0 1-.61-.968l-.009-.159v-3.903c-.708.733-1.595 1.236-2.667 1.236-1.939 0-3.269-1.647-4.04-3.313-.819-1.78-1.293-4.145-1.293-6.687s.473-4.907 1.293-6.687c.735-1.592 1.981-3.164 3.78-3.303l.26-.011h16zm0 2.667H11.709c.12.213.229.429.329.647.821 1.78 1.295 4.145 1.295 6.687v10.817l2.245-.749c.274-.091.569-.091.843 0l3.687 1.229 3.673-.613c.144-.024.293-.024.437 0l2.448.409V14.001c0-2.245-.423-4.213-1.049-5.569C24.94 6.961 24.27 6.668 24 6.668zm-16 0c-.271 0-.94.293-1.617 1.764C5.756 9.787 5.334 11.755 5.334 14s.423 4.213 1.049 5.569C7.06 21.04 7.73 21.333 8 21.333s.94-.293 1.617-1.764c.627-1.356 1.049-3.324 1.049-5.569s-.423-4.213-1.049-5.569C8.94 6.96 8.27 6.667 8 6.667zm0 4.666c.736 0 1.333 1.193 1.333 2.667S8.736 16.667 8 16.667 6.667 15.474 6.667 14 7.264 11.333 8 11.333z"/></symbol><symbol id="icon-icon-tv-set" viewBox="0 0 32 32"><path stroke-linejoin="round" stroke-linecap="round" stroke-width="1.8" d="M24 26H8c-2.216 0-4-1.784-4-4V12c0-2.216 1.784-4 4-4h16c2.216 0 4 1.784 4 4v10c0 2.216-1.784 4-4 4zM12 30h8M16 8l6-6M16 8l-6-6"/></symbol><symbol id="icon-icon-users" viewBox="0 0 32 32"><path d="M9.067 24.133h-4.4c-.267 0-.4-.133-.533-.267s-.267-.4-.133-.667c.8-2.267 2.8-3.6 5.067-3.6 2.8 0 5.067-2.4 5.067-5.2s-2.267-5.467-5.067-5.467c-2.8 0-5.067 2.4-5.067 5.333a5.69 5.69 0 0 0 1.333 3.6c-1.733.933-3.067 2.4-3.867 4.4-.267.933-.133 2.133.533 3.067s1.6 1.467 2.667 1.467h4.4c.8 0 1.333-.533 1.333-1.333s-.533-1.333-1.333-1.333zm-2.4-9.866c0-1.467 1.067-2.533 2.4-2.533s2.4 1.2 2.4 2.533c0 1.467-1.067 2.533-2.4 2.533s-2.4-1.2-2.4-2.533z"/><path d="M30.533 21.467c-.933-2.533-2.8-4.4-4.933-5.467 1.2-1.067 1.867-2.667 1.867-4.533C27.467 8 24.8 5.2 21.6 5.2s-5.867 2.8-5.867 6.267A6.35 6.35 0 0 0 17.6 16c-2.133 1.067-4 2.933-4.933 5.467-.667 1.2-.4 2.533.267 3.6s1.867 1.6 3.067 1.6h11.067c1.2 0 2.4-.667 3.067-1.6.8-1.067.933-2.4.4-3.6zM18.267 11.6c0-2 1.467-3.6 3.2-3.6s3.2 1.6 3.2 3.6-1.467 3.6-3.2 3.6-3.2-1.733-3.2-3.6zm9.6 12c-.133.133-.4.533-.8.533H16c-.533 0-.8-.4-.8-.533-.133-.133-.4-.667-.133-1.2 1.067-2.8 3.733-4.667 6.533-4.667s5.467 1.867 6.533 4.667c.133.533-.133 1.067-.267 1.2z"/></symbol><symbol id="icon-icon-water" viewBox="0 0 32 32"><path stroke-miterlimit="10" stroke-width="2.4" d="M25 20c0 5.523-3.477 9-9 9s-9-3.477-9-9c0-5.927 6.452-13.928 8.431-16.242a.763.763 0 0 1 .57-.263.744.744 0 0 1 .57.263c1.978 2.314 8.43 10.316 8.43 16.242z"/><path stroke-linejoin="round" stroke-linecap="round" stroke-width="2.4" d="M21.5 20.5A4.5 4.5 0 0 1 17 25"/></symbol></defs></svg>